<svg width="235" height="63" viewBox="0 0 235 63" fill="none" xmlns="http://www.w3.org/2000/svg">
<g opacity="0.25">
<path opacity="0.4" d="M35.8077 63H12.3846C5.51923 63 0 57.4808 0 50.6154C0 43.75 5.51923 38.2308 12.3846 38.2308H35.6731C42.5385 38.2308 48.0577 43.75 48.0577 50.6154C48.0577 57.4808 42.5385 63 35.8077 63Z" fill="#E5EDEF"/>
<path opacity="0.4" d="M234.096 50.6154C234.096 57.3462 228.577 63 221.711 63H69.0577C62.3269 63 56.673 57.4808 56.673 50.6154C56.673 43.75 62.1923 38.2308 69.0577 38.2308H132.596C135.827 16.6923 154.404 0 177.019 0C199.5 0 218.077 16.5577 221.442 38.2308H221.981C228.577 38.2308 234.096 43.8846 234.096 50.6154Z" fill="#E5EDEF"/>
</g>
</svg>
